<?xml version="1.0"?>
<svg xmlns="http://www.w3.org/2000/svg" xmlns:xlink="http://www.w3.org/1999/xlink" xmlns:svgjs="http://svgjs.com/svgjs" version="1.1" width="512" height="512" x="0" y="0" viewBox="0 0 512.008 512.008" style="enable-background:new 0 0 512 512" xml:space="preserve" class=""><g transform="matrix(6.123233995736766e-17,-1,1,6.123233995736766e-17,-0.0001394748688881009,512.0091111660004)">
<path xmlns="http://www.w3.org/2000/svg" style="" d="M458.675,202.68H207.091l77.781-77.781c21.844-21.838,21.849-57.249,0.011-79.093  c-21.838-21.844-57.249-21.849-79.093-0.011L3.123,248.461c-4.164,4.165-4.164,10.917,0,15.083L205.79,466.211  c21.838,21.838,57.245,21.838,79.083,0c21.838-21.838,21.838-57.245,0-79.083l0,0l-77.781-77.781h251.584  c29.455,0,53.333-23.878,53.333-53.333S488.13,202.68,458.675,202.68z" fill="#ff9800" data-original="#ff9800" class=""/>
<g xmlns="http://www.w3.org/2000/svg">
</g>
<g xmlns="http://www.w3.org/2000/svg">
</g>
<g xmlns="http://www.w3.org/2000/svg">
</g>
<g xmlns="http://www.w3.org/2000/svg">
</g>
<g xmlns="http://www.w3.org/2000/svg">
</g>
<g xmlns="http://www.w3.org/2000/svg">
</g>
<g xmlns="http://www.w3.org/2000/svg">
</g>
<g xmlns="http://www.w3.org/2000/svg">
</g>
<g xmlns="http://www.w3.org/2000/svg">
</g>
<g xmlns="http://www.w3.org/2000/svg">
</g>
<g xmlns="http://www.w3.org/2000/svg">
</g>
<g xmlns="http://www.w3.org/2000/svg">
</g>
<g xmlns="http://www.w3.org/2000/svg">
</g>
<g xmlns="http://www.w3.org/2000/svg">
</g>
<g xmlns="http://www.w3.org/2000/svg">
</g>
</g></svg>
